<svg width="1670" height="616" viewBox="0 0 1670 616" fill="none" xmlns="http://www.w3.org/2000/svg">
<path d="M689.284 319.263V227.763H660.934V207.513H740.434V227.763H712.534V319.263H689.284ZM736.227 319.263L774.027 207.513H804.927L842.727 319.263H817.377L809.877 296.463H768.927L761.427 319.263H736.227ZM775.377 276.213H803.427L786.327 223.413H792.627L775.377 276.213ZM854.341 319.263V207.513H876.841L918.691 263.013H908.191L948.841 207.513H971.341V319.263H948.091V233.163L957.391 235.263L914.341 290.763H911.341L869.791 235.263L877.591 233.163V319.263H854.341ZM982.907 319.263L1020.71 207.513H1051.61L1089.41 319.263H1064.06L1056.56 296.463H1015.61L1008.11 319.263H982.907ZM1022.06 276.213H1050.11L1033.01 223.413H1039.31L1022.06 276.213ZM1101.02 319.263V207.513H1143.77C1151.47 207.513 1158.27 208.863 1164.17 211.563C1170.17 214.263 1174.87 218.263 1178.27 223.563C1181.67 228.863 1183.37 235.413 1183.37 243.213C1183.37 250.813 1181.62 257.313 1178.12 262.713C1174.62 268.013 1169.92 272.013 1164.02 274.713L1189.52 319.263H1163.42L1135.82 269.913L1150.82 278.763H1124.27V319.263H1101.02ZM1124.27 258.513H1143.92C1147.22 258.513 1150.07 257.863 1152.47 256.563C1154.87 255.263 1156.72 253.463 1158.02 251.163C1159.42 248.863 1160.12 246.213 1160.12 243.213C1160.12 240.113 1159.42 237.413 1158.02 235.113C1156.72 232.813 1154.87 231.013 1152.47 229.713C1150.07 228.413 1147.22 227.763 1143.92 227.763H1124.27V258.513ZM1192.82 319.263L1230.62 207.513H1261.52L1299.32 319.263H1273.97L1266.47 296.463H1225.52L1218.02 319.263H1192.82ZM1231.97 276.213H1260.02L1242.92 223.413H1249.22L1231.97 276.213ZM709.834 470.063C702.834 470.063 696.234 468.813 690.034 466.313C683.934 463.713 678.634 460.063 674.134 455.363C669.734 450.663 666.434 445.113 664.234 438.713L683.284 430.163C686.084 436.263 689.934 441.063 694.834 444.563C699.834 448.063 705.334 449.813 711.334 449.813C714.534 449.813 717.284 449.313 719.584 448.313C721.884 447.313 723.684 445.963 724.984 444.263C726.284 442.463 726.934 440.363 726.934 437.963C726.934 435.363 726.134 433.163 724.534 431.363C722.934 429.463 720.434 427.963 717.034 426.863L695.134 419.663C686.234 416.763 679.534 412.663 675.034 407.363C670.534 401.963 668.284 395.513 668.284 388.013C668.284 381.413 669.884 375.613 673.084 370.613C676.384 365.613 680.934 361.713 686.734 358.913C692.634 356.113 699.384 354.713 706.984 354.713C713.684 354.713 719.884 355.863 725.584 358.163C731.284 360.463 736.184 363.713 740.284 367.913C744.484 372.113 747.634 377.163 749.734 383.063L730.834 391.613C728.734 386.413 725.584 382.363 721.384 379.463C717.184 376.463 712.384 374.963 706.984 374.963C703.884 374.963 701.134 375.463 698.734 376.463C696.334 377.463 694.484 378.913 693.184 380.813C691.884 382.613 691.234 384.713 691.234 387.113C691.234 389.713 692.084 392.013 693.784 394.013C695.484 395.913 698.034 397.413 701.434 398.513L722.884 405.413C731.884 408.313 738.584 412.363 742.984 417.563C747.484 422.763 749.734 429.113 749.734 436.613C749.734 443.113 748.034 448.913 744.634 454.013C741.234 459.013 736.534 462.963 730.534 465.863C724.634 468.663 717.734 470.063 709.834 470.063ZM766.303 468.263V356.513H809.053C816.753 356.513 823.553 357.863 829.453 360.563C835.453 363.263 840.153 367.263 843.553 372.563C846.953 377.863 848.653 384.413 848.653 392.213C848.653 399.813 846.903 406.313 843.403 411.713C839.903 417.013 835.203 421.013 829.303 423.713L854.803 468.263H828.703L801.103 418.913L816.103 427.763H789.553V468.263H766.303ZM789.553 407.513H809.203C812.503 407.513 815.353 406.863 817.753 405.563C820.153 404.263 822.003 402.463 823.303 400.163C824.703 397.863 825.403 395.213 825.403 392.213C825.403 389.113 824.703 386.413 823.303 384.113C822.003 381.813 820.153 380.013 817.753 378.713C815.353 377.413 812.503 376.763 809.203 376.763H789.553V407.513ZM866.352 468.263V356.513H941.502V376.763H889.602V402.113H938.502V422.363H889.602V448.013H941.502V468.263H866.352ZM954.682 468.263V356.513H991.132C1003.23 356.513 1013.73 358.913 1022.63 363.713C1031.53 368.513 1038.43 375.113 1043.33 383.513C1048.23 391.913 1050.68 401.513 1050.68 412.313C1050.68 423.113 1048.23 432.763 1043.33 441.263C1038.43 449.663 1031.53 456.263 1022.63 461.063C1013.73 465.863 1003.23 468.263 991.132 468.263H954.682ZM977.932 448.013H991.732C999.032 448.013 1005.33 446.563 1010.63 443.663C1015.93 440.663 1020.03 436.513 1022.93 431.213C1025.93 425.813 1027.43 419.513 1027.43 412.313C1027.43 405.013 1025.93 398.713 1022.93 393.413C1020.03 388.113 1015.93 384.013 1010.63 381.113C1005.33 378.213 999.032 376.763 991.732 376.763H977.932V448.013ZM1121.52 470.063C1113.12 470.063 1105.32 468.613 1098.12 465.713C1090.92 462.813 1084.62 458.763 1079.22 453.563C1073.92 448.263 1069.77 442.113 1066.77 435.113C1063.77 428.113 1062.27 420.513 1062.27 412.313C1062.27 404.113 1063.72 396.513 1066.62 389.513C1069.62 382.513 1073.77 376.413 1079.07 371.213C1084.47 366.013 1090.77 361.963 1097.97 359.063C1105.17 356.163 1113.02 354.713 1121.52 354.713C1130.02 354.713 1137.87 356.163 1145.07 359.063C1152.27 361.963 1158.52 366.013 1163.82 371.213C1169.22 376.413 1173.37 382.513 1176.27 389.513C1179.27 396.513 1180.77 404.113 1180.77 412.313C1180.77 420.513 1179.27 428.113 1176.27 435.113C1173.27 442.113 1169.07 448.263 1163.67 453.563C1158.37 458.763 1152.12 462.813 1144.92 465.713C1137.72 468.613 1129.92 470.063 1121.52 470.063ZM1121.52 449.063C1126.62 449.063 1131.32 448.163 1135.62 446.363C1140.02 444.563 1143.87 442.063 1147.17 438.863C1150.47 435.563 1153.02 431.663 1154.82 427.163C1156.62 422.663 1157.52 417.713 1157.52 412.313C1157.52 406.913 1156.62 402.013 1154.82 397.613C1153.02 393.113 1150.47 389.213 1147.17 385.913C1143.87 382.613 1140.02 380.113 1135.62 378.413C1131.32 376.613 1126.62 375.713 1121.52 375.713C1116.42 375.713 1111.67 376.613 1107.27 378.413C1102.97 380.113 1099.17 382.613 1095.87 385.913C1092.57 389.213 1090.02 393.113 1088.22 397.613C1086.42 402.013 1085.52 406.913 1085.52 412.313C1085.52 417.713 1086.42 422.663 1088.22 427.163C1090.02 431.663 1092.57 435.563 1095.87 438.863C1099.17 442.063 1102.97 444.563 1107.27 446.363C1111.67 448.163 1116.42 449.063 1121.52 449.063ZM1192.31 468.263V447.263H1199.06C1203.56 447.263 1207.16 446.013 1209.86 443.513C1212.66 440.913 1214.06 437.513 1214.06 433.313V356.513H1237.31V432.263C1237.31 439.463 1235.76 445.763 1232.66 451.163C1229.56 456.563 1225.11 460.763 1219.31 463.763C1213.61 466.763 1206.86 468.263 1199.06 468.263H1192.31ZM1256.73 468.263V356.513H1331.88V376.763H1279.98V402.113H1328.88V422.363H1279.98V448.013H1331.88V468.263H1256.73ZM1375.06 468.263L1336.81 356.513H1362.31L1391.11 446.213H1386.01L1414.81 356.513H1440.31L1402.06 468.263H1375.06ZM1451.85 468.263V356.513H1475.1V468.263H1451.85ZM1548.02 470.063C1540.02 470.063 1532.57 468.613 1525.67 465.713C1518.87 462.813 1512.92 458.763 1507.82 453.563C1502.72 448.363 1498.72 442.263 1495.82 435.263C1493.02 428.263 1491.62 420.613 1491.62 412.313C1491.62 404.013 1493.02 396.363 1495.82 389.363C1498.62 382.263 1502.57 376.163 1507.67 371.063C1512.77 365.863 1518.72 361.863 1525.52 359.063C1532.42 356.163 1539.92 354.713 1548.02 354.713C1556.12 354.713 1563.37 356.063 1569.77 358.763C1576.27 361.463 1581.77 365.063 1586.27 369.563C1590.77 374.063 1593.97 379.063 1595.87 384.563L1575.32 394.463C1573.42 389.063 1570.07 384.613 1565.27 381.113C1560.57 377.513 1554.82 375.713 1548.02 375.713C1541.42 375.713 1535.62 377.263 1530.62 380.363C1525.62 383.463 1521.72 387.763 1518.92 393.263C1516.22 398.663 1514.87 405.013 1514.87 412.313C1514.87 419.613 1516.22 426.013 1518.92 431.513C1521.72 437.013 1525.62 441.313 1530.62 444.413C1535.62 447.513 1541.42 449.063 1548.02 449.063C1554.82 449.063 1560.57 447.313 1565.27 443.813C1570.07 440.213 1573.42 435.713 1575.32 430.313L1595.87 440.213C1593.97 445.713 1590.77 450.713 1586.27 455.213C1581.77 459.713 1576.27 463.313 1569.77 466.013C1563.37 468.713 1556.12 470.063 1548.02 470.063Z" fill="#322E2E"/>
<ellipse cx="1121.5" cy="413.022" rx="51.214" ry="55.2415" fill="#322E2E"/>
<path d="M132.476 120.579C92.4369 151.183 74.3185 201.397 76.369 256.755C78.4204 312.136 100.603 373.361 142.054 427.591C183.506 481.822 236.764 519.294 289.666 535.806C342.545 552.312 395.754 548.007 435.793 517.402C475.832 486.798 493.951 436.584 491.9 381.226C489.849 325.845 467.666 264.62 426.215 210.39C384.763 156.159 331.505 118.687 278.603 102.174C225.724 85.6685 172.515 89.9744 132.476 120.579Z" fill="#322E2E" stroke="black" stroke-width="15"/>
<path d="M572.875 328.811C530.06 435.169 424.106 490.196 337.59 455.37C251.074 420.543 212.795 307.455 255.609 201.097C298.423 94.7385 404.377 39.7115 490.893 74.5384C577.409 109.365 615.689 222.453 572.875 328.811Z" fill="#D9FFB6" stroke="black" stroke-width="15"/>
</svg>
